<?xml version="1.0" encoding="UTF-8" standalone="no"?>
<svg
   xmlns:dc="http://purl.org/dc/elements/1.1/"
   xmlns:cc="http://creativecommons.org/ns#"
   xmlns:rdf="http://www.w3.org/1999/02/22-rdf-syntax-ns#"
   xmlns:svg="http://www.w3.org/2000/svg"
   xmlns="http://www.w3.org/2000/svg"
   xmlns:sodipodi="http://sodipodi.sourceforge.net/DTD/sodipodi-0.dtd"
   xmlns:inkscape="http://www.inkscape.org/namespaces/inkscape"
   version="1.1"
   width="518.03149"
   height="314.29132"
   viewBox="0 0 518.03192 314.2916"
   id="svg2"
   inkscape:version="0.91 r13725"
   sodipodi:docname="case_1mm_0,1,1.5kerf.svg">
  <metadata
     id="metadata32">
    <rdf:RDF>
      <cc:Work
         rdf:about="">
        <dc:format>image/svg+xml</dc:format>
        <dc:type
           rdf:resource="http://purl.org/dc/dcmitype/StillImage" />
        <dc:title></dc:title>
      </cc:Work>
    </rdf:RDF>
  </metadata>
  <defs
     id="defs30" />
  <sodipodi:namedview
     pagecolor="#ffffff"
     bordercolor="#666666"
     borderopacity="1"
     objecttolerance="10"
     gridtolerance="10"
     guidetolerance="10"
     inkscape:pageopacity="0"
     inkscape:pageshadow="2"
     inkscape:window-width="1918"
     inkscape:window-height="1198"
     id="namedview28"
     showgrid="false"
     inkscape:zoom="2"
     inkscape:cx="184.75721"
     inkscape:cy="70.777541"
     inkscape:window-x="1920"
     inkscape:window-y="0"
     inkscape:window-maximized="0"
     inkscape:current-layer="svg2"
     inkscape:document-units="mm"
     units="mm" />
  <!-- Front-->
  <!-- Back-->
  <!-- Left-->
  <!-- Right-->
  <!-- Top-->
  <!-- Bottom-->
  <g
     id="g7482"
     transform="translate(-39.949779,-38.375148)">
    <g
       id="g5582"
       transform="translate(53.923272,44.433094)">
      <polygon
         id="polygon5584"
         points="46.06303,3.54331 46.06303,0 53.14965,0 53.14965,3.54331 60.23627,3.54331 60.23627,0 67.32289,0 67.32289,3.54331 74.40951,3.54331 74.40951,0 81.49613,0 81.49613,3.54331 88.58275,3.54331 88.58275,0 95.66937,0 95.66937,3.54331 104.52765,3.54331 104.52765,0 113.38592,0 113.38592,10.187016 109.84261,10.187016 109.84261,20.374032 113.38592,20.374032 113.38592,27.460652 109.84261,27.460652 109.84261,37.647669 113.38592,37.647669 113.38592,47.834685 104.52765,47.834685 104.52765,44.291375 95.66937,44.291375 95.66937,47.834685 88.58275,47.834685 88.58275,44.291375 81.49613,44.291375 81.49613,47.834685 74.40951,47.834685 74.40951,44.291375 67.32289,44.291375 67.32289,47.834685 60.23627,47.834685 60.23627,44.291375 53.14965,44.291375 53.14965,47.834685 46.06303,47.834685 46.06303,44.291375 38.97641,44.291375 38.97641,47.834685 31.88979,47.834685 31.88979,44.291375 24.80317,44.291375 24.80317,47.834685 17.71655,47.834685 17.71655,44.291375 8.858275,44.291375 8.858275,47.834685 0,47.834685 0,37.647669 3.54331,37.647669 3.54331,27.460652 0,27.460652 0,20.374032 3.54331,20.374032 3.54331,10.187016 0,10.187016 0,0 8.858275,0 8.858275,3.54331 17.71655,3.54331 17.71655,0 24.80317,0 24.80317,3.54331 31.88979,3.54331 31.88979,0 38.97641,0 38.97641,3.54331 "
         style="fill:none;stroke:#0000ff;stroke-width:0.0354331" />
    </g>
    <g
       id="g5586"
       transform="translate(167.30919,44.433094)">
      <polygon
         id="polygon5588"
         points="46.06303,3.54331 46.06303,0 53.14965,0 53.14965,3.54331 60.23627,3.54331 60.23627,0 67.32289,0 67.32289,3.54331 74.40951,3.54331 74.40951,0 81.49613,0 81.49613,3.54331 88.58275,3.54331 88.58275,0 95.66937,0 95.66937,3.54331 104.52765,3.54331 104.52765,0 113.38592,0 113.38592,10.187016 109.84261,10.187016 109.84261,20.374032 113.38592,20.374032 113.38592,27.460652 109.84261,27.460652 109.84261,37.647669 113.38592,37.647669 113.38592,47.834685 104.52765,47.834685 104.52765,44.291375 95.66937,44.291375 95.66937,47.834685 88.58275,47.834685 88.58275,44.291375 81.49613,44.291375 81.49613,47.834685 74.40951,47.834685 74.40951,44.291375 67.32289,44.291375 67.32289,47.834685 60.23627,47.834685 60.23627,44.291375 53.14965,44.291375 53.14965,47.834685 46.06303,47.834685 46.06303,44.291375 38.97641,44.291375 38.97641,47.834685 31.88979,47.834685 31.88979,44.291375 24.80317,44.291375 24.80317,47.834685 17.71655,47.834685 17.71655,44.291375 8.858275,44.291375 8.858275,47.834685 0,47.834685 0,37.647669 3.54331,37.647669 3.54331,27.460652 0,27.460652 0,20.374032 3.54331,20.374032 3.54331,10.187016 0,10.187016 0,0 8.858275,0 8.858275,3.54331 17.71655,3.54331 17.71655,0 24.80317,0 24.80317,3.54331 31.88979,3.54331 31.88979,0 38.97641,0 38.97641,3.54331 "
         style="fill:none;stroke:#0000ff;stroke-width:0.0354331" />
    </g>
    <g
       id="g5590"
       transform="matrix(0,1.0000001,-0.99999994,0,377.65828,91.824773)">
      <polygon
         id="polygon5592"
         points="58.464615,0 58.464615,3.54331 65.551235,3.54331 65.551235,0 72.637855,0 72.637855,3.54331 79.724475,3.54331 79.724475,0 86.811095,0 86.811095,3.54331 93.897715,3.54331 93.897715,0 100.98434,0 100.98434,3.54331 108.07095,3.54331 108.07095,0 115.15757,0 115.15757,3.54331 122.2442,3.54331 122.2442,0 129.33082,0 129.33082,3.54331 136.41744,3.54331 136.41744,0 143.50405,0 143.50405,3.54331 150.59067,3.54331 150.59067,0 157.6773,0 157.6773,3.54331 164.76391,3.54331 164.76391,0 171.85053,0 171.85053,3.54331 183.36629,3.54331 183.36629,0 191.33874,0 191.33874,10.187016 194.88205,10.187016 194.88205,20.374032 191.33874,20.374032 191.33874,27.460652 194.88205,27.460652 194.88205,37.647669 191.33874,37.647669 191.33874,47.834685 183.36629,47.834685 183.36629,44.291375 171.85053,44.291375 171.85053,47.834685 164.76391,47.834685 164.76391,44.291375 157.6773,44.291375 157.6773,47.834685 150.59067,47.834685 150.59067,44.291375 143.50405,44.291375 143.50405,47.834685 136.41744,47.834685 136.41744,44.291375 129.33082,44.291375 129.33082,47.834685 122.2442,47.834685 122.2442,44.291375 115.15757,44.291375 115.15757,47.834685 108.07095,47.834685 108.07095,44.291375 100.98434,44.291375 100.98434,47.834685 93.897715,47.834685 93.897715,44.291375 86.811095,44.291375 86.811095,47.834685 79.724475,47.834685 79.724475,44.291375 72.637855,44.291375 72.637855,47.834685 65.551235,47.834685 65.551235,44.291375 58.464615,44.291375 58.464615,47.834685 51.377995,47.834685 51.377995,44.291375 44.291375,44.291375 44.291375,47.834685 37.204755,47.834685 37.204755,44.291375 30.118135,44.291375 30.118135,47.834685 23.031515,47.834685 23.031515,44.291375 11.515757,44.291375 11.515757,47.834685 3.54331,47.834685 3.54331,37.647669 0,37.647669 0,27.460652 3.54331,27.460652 3.54331,20.374032 0,20.374032 0,10.187016 3.54331,10.187016 3.54331,0 11.515757,0 11.515757,3.54331 23.031515,3.54331 23.031515,0 30.118135,0 30.118135,3.54331 37.204755,3.54331 37.204755,0 44.291375,0 44.291375,3.54331 51.377995,3.54331 51.377995,0 "
         style="fill:none;stroke:#0000ff;stroke-width:0.0354331" />
    </g>
    <path
       id="polygon5596"
       d="m 291.16016,92.179688 0,3.542968 -10.1875,0 0,7.972654 3.54296,0 0,11.51563 -3.54296,0 0,7.08594 3.54296,0 0,7.08789 -3.54296,0 0,7.08593 3.54296,0 0,7.08594 -3.54296,0 0,7.08789 3.54296,0 0,7.08594 -3.54296,0 0,7.08789 3.54296,0 0,7.08594 -3.54296,0 0,1.49609 16.52343,0 0,28.0957 -16.52343,0 0,5.8418 3.54296,0 0,7.08594 -3.54296,0 0,7.08594 3.54296,0 0,7.08789 -3.54296,0 0,7.08593 3.54296,0 0,7.08594 -3.54296,0 0,7.08789 3.54296,0 0,7.08594 -3.54296,0 0,7.08594 3.54296,0 0,11.51562 -3.54296,0 0,7.97266 10.1875,0 0,3.54297 10.18554,0 0,-3.54297 7.08789,0 0,3.54297 10.18555,0 0,-3.54297 10.1875,0 0,-7.97266 -3.54297,0 0,-11.51562 3.54297,0 0,-7.08594 -3.54297,0 0,-7.08594 3.54297,0 0,-7.08789 -3.54297,0 0,-7.08594 3.54297,0 0,-7.08593 -3.54297,0 0,-7.08789 3.54297,0 0,-7.08594 -3.54297,0 0,-7.08594 3.54297,0 0,-7.08789 -3.54297,0 0,-7.08594 3.54297,0 0,-7.08594 -3.54297,0 0,-7.08789 3.54297,0 0,-7.08593 -3.54297,0 0,-7.08594 3.54297,0 0,-7.08789 -3.54297,0 0,-7.08594 3.54297,0 0,-7.08789 -3.54297,0 0,-7.08594 3.54297,0 0,-7.08593 -3.54297,0 0,-7.08789 3.54297,0 0,-7.08594 -3.54297,0 0,-11.51563 3.54297,0 0,-7.972654 -10.1875,0 0,-3.542968 -10.18555,0 0,3.542968 -7.08789,0 0,-3.542968 -10.18554,0 z"
       style="fill:none;stroke:#0000ff;stroke-width:0.0354331"
       inkscape:connector-curvature="0" />
    <g
       id="g5598"
       transform="translate(53.923272,92.26778)">
      <polygon
         id="polygon5600"
         points="46.06303,0 46.06303,3.54331 53.14965,3.54331 53.14965,0 60.23627,0 60.23627,3.54331 67.32289,3.54331 67.32289,0 74.40951,0 74.40951,3.54331 81.49613,3.54331 81.49613,0 88.58275,0 88.58275,3.54331 95.66937,3.54331 95.66937,0 104.52765,0 104.52765,3.54331 109.84261,3.54331 109.84261,11.515757 113.38592,11.515757 113.38592,23.031515 109.84261,23.031515 109.84261,30.118135 113.38592,30.118135 113.38592,37.204755 109.84261,37.204755 109.84261,44.291375 113.38592,44.291375 113.38592,51.377995 109.84261,51.377995 109.84261,58.464615 113.38592,58.464615 113.38592,65.551235 109.84261,65.551235 109.84261,72.637855 113.38592,72.637855 113.38592,79.724475 109.84261,79.724475 109.84261,86.811095 113.38592,86.811095 113.38592,93.897715 109.84261,93.897715 109.84261,100.98434 113.38592,100.98434 113.38592,108.07095 109.84261,108.07095 109.84261,115.15757 113.38592,115.15757 113.38592,122.2442 109.84261,122.2442 109.84261,129.33082 113.38592,129.33082 113.38592,136.41744 109.84261,136.41744 109.84261,143.50405 113.38592,143.50405 113.38592,150.59067 109.84261,150.59067 109.84261,157.6773 113.38592,157.6773 113.38592,164.76391 109.84261,164.76391 109.84261,171.85053 113.38592,171.85053 113.38592,183.36629 109.84261,183.36629 109.84261,191.33874 104.52765,191.33874 104.52765,194.88205 95.66937,194.88205 95.66937,191.33874 88.58275,191.33874 88.58275,194.88205 81.49613,194.88205 81.49613,191.33874 74.40951,191.33874 74.40951,194.88205 67.32289,194.88205 67.32289,191.33874 60.23627,191.33874 60.23627,194.88205 53.14965,194.88205 53.14965,191.33874 46.06303,191.33874 46.06303,194.88205 38.97641,194.88205 38.97641,191.33874 31.88979,191.33874 31.88979,194.88205 24.80317,194.88205 24.80317,191.33874 17.71655,191.33874 17.71655,194.88205 8.858275,194.88205 8.858275,191.33874 3.54331,191.33874 3.54331,183.36629 0,183.36629 0,171.85053 3.54331,171.85053 3.54331,164.76391 0,164.76391 0,157.6773 3.54331,157.6773 3.54331,150.59067 0,150.59067 0,143.50405 3.54331,143.50405 3.54331,136.41744 0,136.41744 0,129.33082 3.54331,129.33082 3.54331,122.2442 0,122.2442 0,115.15757 3.54331,115.15757 3.54331,108.07095 0,108.07095 0,100.98434 3.54331,100.98434 3.54331,93.897715 0,93.897715 0,86.811095 3.54331,86.811095 3.54331,79.724475 0,79.724475 0,72.637855 3.54331,72.637855 3.54331,65.551235 0,65.551235 0,58.464615 3.54331,58.464615 3.54331,51.377995 0,51.377995 0,44.291375 3.54331,44.291375 3.54331,37.204755 0,37.204755 0,30.118135 3.54331,30.118135 3.54331,23.031515 0,23.031515 0,11.515757 3.54331,11.515757 3.54331,3.54331 8.858275,3.54331 8.858275,0 17.71655,0 17.71655,3.54331 24.80317,3.54331 24.80317,0 31.88979,0 31.88979,3.54331 38.97641,3.54331 38.97641,0 "
         style="fill:none;stroke:#0000ff;stroke-width:0.0354331" />
    </g>
    <path
       id="polygon5604"
       d="m 176.16797,92.267578 0,3.542969 -5.31641,0 0,7.972653 -3.54297,0 0,11.51563 3.54297,0 0,7.08789 -3.54297,0 0,7.08594 3.54297,0 0,7.08593 -3.54297,0 0,7.08789 3.54297,0 0,7.08594 -3.54297,0 0,7.08594 3.54297,0 0,7.08789 -3.54297,0 0,7.08594 3.54297,0 0,7.08593 -3.54297,0 0,7.0879 3.54297,0 0,7.08593 -3.54297,0 0,7.08594 3.54297,0 0,7.08789 -3.54297,0 0,7.08594 3.54297,0 0,7.08594 -3.54297,0 0,7.08789 3.54297,0 0,7.08593 -3.54297,0 0,7.08594 3.54297,0 0,7.08789 -3.54297,0 0,7.08594 3.54297,0 0,7.08594 -3.54297,0 0,11.51758 3.54297,0 0,7.9707 5.31641,0 0,3.54492 8.85742,0 0,-3.54492 7.08594,0 0,3.54492 7.08789,0 0,-3.54492 7.08594,0 0,3.54492 7.08593,0 0,-3.54492 7.08789,0 0,3.54492 7.08594,0 0,-3.54492 7.08789,0 0,3.54492 7.08594,0 0,-3.54492 7.08594,0 0,3.54492 7.08789,0 0,-3.54492 7.08594,0 0,3.54492 8.85742,0 0,-3.54492 5.3164,0 0,-7.9707 3.54297,0 0,-11.51758 -3.54297,0 0,-7.08594 3.54297,0 0,-7.08594 -3.54297,0 0,-7.08789 3.54297,0 0,-7.08594 -3.54297,0 0,-7.08593 3.54297,0 0,-7.08789 -3.54297,0 0,-7.08594 3.54297,0 0,-7.08594 -3.54297,0 0,-7.08789 0.0332,0 0,-7.08594 -0.0332,0 0,-7.08593 0.0332,0 0,-7.0879 -0.0332,0 0,-7.08593 3.54297,0 0,-7.08594 -3.54297,0 0,-7.08789 3.54297,0 0,-7.08594 -3.54297,0 0,-7.08594 3.54297,0 0,-7.08789 -3.54297,0 0,-7.08593 3.54297,0 0,-7.08594 -3.54297,0 0,-7.08789 3.54297,0 0,-11.51563 -3.54297,0 0,-7.972653 -5.3164,0 0,-3.542969 -8.85742,0 0,3.542969 -7.08594,0 0,-3.542969 -7.08789,0 0,3.542969 -7.08594,0 0,-3.542969 -7.08594,0 0,3.542969 -7.08789,0 0,-3.542969 -7.08594,0 0,3.542969 -7.08789,0 0,-3.542969 -7.08593,0 0,3.542969 -7.08594,0 0,-3.542969 -7.08789,0 0,3.542969 -7.08594,0 0,-3.542969 -8.85742,0 z M 201.6582,246.63086 a 4.4194101,4.4194092 0 0 1 4.41992,4.41797 4.4194101,4.4194092 0 0 1 -4.41992,4.41992 4.4194101,4.4194092 0 0 1 -4.41992,-4.41992 4.4194101,4.4194092 0 0 1 4.41992,-4.41797 z m 25.14649,0 a 4.4194138,4.4194132 0 0 1 4.41992,4.41797 4.4194138,4.4194132 0 0 1 -4.41992,4.41992 4.4194138,4.4194132 0 0 1 -4.41992,-4.41992 4.4194138,4.4194132 0 0 1 4.41992,-4.41797 z m 24.83789,0 a 4.4194175,4.4194172 0 0 1 4.41797,4.41797 4.4194175,4.4194172 0 0 1 -4.41797,4.41992 4.4194175,4.4194172 0 0 1 -4.41992,-4.41992 4.4194175,4.4194172 0 0 1 4.41992,-4.41797 z m -44.2168,18.82617 a 7.093147,7.0931459 0 0 1 7.0918,7.09375 7.093147,7.0931459 0 0 1 -7.0918,7.0918 7.093147,7.0931459 0 0 1 -7.09375,-7.0918 7.093147,7.0931459 0 0 1 7.09375,-7.09375 z"
       style="fill:none;stroke:#0000ff;stroke-width:0.0354331"
       inkscape:connector-curvature="0" />
  </g>
  <g
     id="g16712"
     transform="translate(37.264379,455.93783)">
    <polygon
       transform="matrix(0,1.0000001,-0.99999994,0,549.47997,-446.70602)"
       style="fill:none;stroke:#0000ff;stroke-width:0.0354331"
       points="96.378032,0 96.378032,3.54331 104.52765,3.54331 104.52765,0 114.09458,0 114.09458,10.895678 110.55127,10.895678 110.55127,20.374032 114.09458,20.374032 114.09458,28.169314 110.55127,28.169314 110.55127,37.647669 114.09458,37.647669 114.09458,48.543347 104.52765,48.543347 104.52765,45.000037 96.378032,45.000037 96.378032,48.543347 88.58275,48.543347 88.58275,45.000037 82.204792,45.000037 82.204792,48.543347 74.40951,48.543347 74.40951,45.000037 68.031552,45.000037 68.031552,48.543347 60.23627,48.543347 60.23627,45.000037 53.858312,45.000037 53.858312,48.543347 46.06303,48.543347 46.06303,45.000037 39.685072,45.000037 39.685072,48.543347 31.88979,48.543347 31.88979,45.000037 25.511832,45.000037 25.511832,48.543347 17.71655,48.543347 17.71655,45.000037 9.566937,45.000037 9.566937,48.543347 0,48.543347 0,37.647669 3.54331,37.647669 3.54331,28.169314 0,28.169314 0,20.374032 3.54331,20.374032 3.54331,10.895678 0,10.895678 0,0 9.566937,0 9.566937,3.54331 17.71655,3.54331 17.71655,0 25.511832,0 25.511832,3.54331 31.88979,3.54331 31.88979,0 39.685072,0 39.685072,3.54331 46.06303,3.54331 46.06303,0 53.858312,0 53.858312,3.54331 60.23627,3.54331 60.23627,0 68.031552,0 68.031552,3.54331 74.40951,3.54331 74.40951,0 82.204792,0 82.204792,3.54331 88.58275,3.54331 88.58275,0 "
       id="polygon15612" />
    <polygon
       transform="matrix(0,1.0000001,-0.99999994,0,549.47997,-332.61142)"
       style="fill:none;stroke:#0000ff;stroke-width:0.0354331"
       points="96.378032,0 96.378032,3.54331 104.52765,3.54331 104.52765,0 114.09458,0 114.09458,10.895678 110.55127,10.895678 110.55127,20.374032 114.09458,20.374032 114.09458,28.169314 110.55127,28.169314 110.55127,37.647669 114.09458,37.647669 114.09458,48.543347 104.52765,48.543347 104.52765,45.000037 96.378032,45.000037 96.378032,48.543347 88.58275,48.543347 88.58275,45.000037 82.204792,45.000037 82.204792,48.543347 74.40951,48.543347 74.40951,45.000037 68.031552,45.000037 68.031552,48.543347 60.23627,48.543347 60.23627,45.000037 53.858312,45.000037 53.858312,48.543347 46.06303,48.543347 46.06303,45.000037 39.685072,45.000037 39.685072,48.543347 31.88979,48.543347 31.88979,45.000037 25.511832,45.000037 25.511832,48.543347 17.71655,48.543347 17.71655,45.000037 9.566937,45.000037 9.566937,48.543347 0,48.543347 0,37.647669 3.54331,37.647669 3.54331,28.169314 0,28.169314 0,20.374032 3.54331,20.374032 3.54331,10.895678 0,10.895678 0,0 9.566937,0 9.566937,3.54331 17.71655,3.54331 17.71655,0 25.511832,0 25.511832,3.54331 31.88979,3.54331 31.88979,0 39.685072,0 39.685072,3.54331 46.06303,3.54331 46.06303,0 53.858312,0 53.858312,3.54331 60.23627,3.54331 60.23627,0 68.031552,0 68.031552,3.54331 74.40951,3.54331 74.40951,0 82.204792,0 82.204792,3.54331 88.58275,3.54331 88.58275,0 "
       id="polygon15616" />
    <polygon
       transform="matrix(-1,0,0,-1,500.94106,-121.44981)"
       style="fill:none;stroke:#0000ff;stroke-width:0.0354331"
       points="108.07095,0 115.86624,0 115.86624,3.54331 122.2442,3.54331 122.2442,0 130.03948,0 130.03948,3.54331 136.41744,3.54331 136.41744,0 144.21272,0 144.21272,3.54331 150.59067,3.54331 150.59067,0 158.38596,0 158.38596,3.54331 164.76391,3.54331 164.76391,0 172.5592,0 172.5592,3.54331 183.36629,3.54331 183.36629,0 192.0474,0 192.0474,10.187016 195.59071,10.187016 195.59071,21.082694 192.0474,21.082694 192.0474,27.460652 195.59071,27.460652 195.59071,38.356331 192.0474,38.356331 192.0474,48.543347 183.36629,48.543347 183.36629,45.000037 172.5592,45.000037 172.5592,48.543347 164.76391,48.543347 164.76391,45.000037 158.38596,45.000037 158.38596,48.543347 150.59067,48.543347 150.59067,45.000037 144.21272,45.000037 144.21272,48.543347 136.41744,48.543347 136.41744,45.000037 130.03948,45.000037 130.03948,48.543347 122.2442,48.543347 122.2442,45.000037 115.86624,45.000037 115.86624,48.543347 108.07095,48.543347 108.07095,45.000037 101.693,45.000037 101.693,48.543347 93.897715,48.543347 93.897715,45.000037 87.519757,45.000037 87.519757,48.543347 79.724475,48.543347 79.724475,45.000037 73.346517,45.000037 73.346517,48.543347 65.551235,48.543347 65.551235,45.000037 59.173277,45.000037 59.173277,48.543347 51.377995,48.543347 51.377995,45.000037 45.000037,45.000037 45.000037,48.543347 37.204755,48.543347 37.204755,45.000037 30.826797,45.000037 30.826797,48.543347 23.031515,48.543347 23.031515,45.000037 12.224419,45.000037 12.224419,48.543347 3.54331,48.543347 3.54331,38.356331 0,38.356331 0,27.460652 3.54331,27.460652 3.54331,21.082694 0,21.082694 0,10.187016 3.54331,10.187016 3.54331,0 12.224419,0 12.224419,3.54331 23.031515,3.54331 23.031515,0 30.826797,0 30.826797,3.54331 37.204755,3.54331 37.204755,0 45.000037,0 45.000037,3.54331 51.377995,3.54331 51.377995,0 59.173277,0 59.173277,3.54331 65.551235,3.54331 65.551235,0 73.346517,0 73.346517,3.54331 79.724475,3.54331 79.724475,0 87.519757,0 87.519757,3.54331 93.897715,3.54331 93.897715,0 101.693,0 101.693,3.54331 108.07095,3.54331 "
       id="polygon15620" />
    <path
       inkscape:connector-curvature="0"
       id="polygon15624"
       d="m 500.97385,-208.32585 -3.54492,0 0,-10.18554 -8.67969,0 0,3.54297 -10.80859,0 0,-3.54297 -7.79492,0 0,3.54297 -6.37695,0 0,-3.54297 -7.79493,0 0,3.54297 -6.3789,0 0,-3.54297 -7.79492,0 0,3.54297 -6.3789,0 0,-3.54297 -7.79492,0 0,3.54297 -6.37696,0 0,-3.54297 -1.62695,0 0,16.8164 -28.09765,0 0,-16.8164 -6.41797,0 0,3.54297 -6.37696,0 0,-3.54297 -7.79687,0 0,3.54297 -6.37696,0 0,-3.54297 -7.79492,0 0,3.54297 -6.3789,0 0,-3.54297 -7.79493,0 0,3.54297 -6.3789,0 0,-3.54297 -7.79492,0 0,3.54297 -10.80663,0 0,-3.54297 -8.68165,0 0,10.18554 -3.54296,0 0,10.89649 3.54296,0 0,6.37891 -3.54296,0 0,10.89453 3.54296,0 0,10.1875 8.68165,0 0,-3.54297 10.80663,0 0,3.54297 7.79492,0 0,-3.54297 6.3789,0 0,3.54297 7.79493,0 0,-3.54297 6.3789,0 0,3.54297 7.79492,0 0,-3.54297 6.37696,0 0,3.54297 7.79687,0 0,-3.54297 6.37696,0 0,3.54297 7.79492,0 0,-3.54297 6.3789,0 0,3.54297 7.79493,0 0,-3.54297 6.37695,0 0,3.54297 7.79687,0 0,-3.54297 6.37696,0 0,3.54297 7.79492,0 0,-3.54297 6.3789,0 0,3.54297 7.79492,0 0,-3.54297 6.3789,0 0,3.54297 7.79493,0 0,-3.54297 6.37695,0 0,3.54297 7.79492,0 0,-3.54297 10.80859,0 0,3.54297 8.67969,0 0,-10.1875 3.54492,0 0,-10.89453 -3.54492,0 0,-6.37891 3.54492,0 0,-10.89649 z"
       style="fill:none;stroke:#0000ff;stroke-width:0.0354331" />
    <polygon
       transform="matrix(0,1.0000001,-0.99999994,0,500.93663,-446.70602)"
       style="fill:none;stroke:#0000ff;stroke-width:0.0354331"
       points="95.66937,3.54331 95.66937,0 105.23631,0 105.23631,3.54331 110.55127,3.54331 110.55127,11.515757 114.09458,11.515757 114.09458,23.740177 110.55127,23.740177 110.55127,30.118135 114.09458,30.118135 114.09458,37.913417 110.55127,37.913417 110.55127,44.291375 114.09458,44.291375 114.09458,52.086657 110.55127,52.086657 110.55127,58.464615 114.09458,58.464615 114.09458,66.259897 110.55127,66.259897 110.55127,72.637855 114.09458,72.637855 114.09458,80.433137 110.55127,80.433137 110.55127,86.811095 114.09458,86.811095 114.09458,94.606377 110.55127,94.606377 110.55127,100.98434 114.09458,100.98434 114.09458,108.77962 110.55127,108.77962 110.55127,115.15757 114.09458,115.15757 114.09458,122.95286 110.55127,122.95286 110.55127,129.33082 114.09458,129.33082 114.09458,137.1261 110.55127,137.1261 110.55127,143.50405 114.09458,143.50405 114.09458,151.29934 110.55127,151.29934 110.55127,157.6773 114.09458,157.6773 114.09458,165.47258 110.55127,165.47258 110.55127,171.85053 114.09458,171.85053 114.09458,184.07495 110.55127,184.07495 110.55127,192.0474 105.23631,192.0474 105.23631,195.59071 95.66937,195.59071 95.66937,192.0474 89.291412,192.0474 89.291412,195.59071 81.49613,195.59071 81.49613,192.0474 75.118172,192.0474 75.118172,195.59071 67.32289,195.59071 67.32289,192.0474 60.944932,192.0474 60.944932,195.59071 53.14965,195.59071 53.14965,192.0474 46.771692,192.0474 46.771692,195.59071 38.97641,195.59071 38.97641,192.0474 32.598452,192.0474 32.598452,195.59071 24.80317,195.59071 24.80317,192.0474 18.425212,192.0474 18.425212,195.59071 8.858275,195.59071 8.858275,192.0474 3.54331,192.0474 3.54331,184.07495 0,184.07495 0,171.85053 3.54331,171.85053 3.54331,165.47258 0,165.47258 0,157.6773 3.54331,157.6773 3.54331,151.29934 0,151.29934 0,143.50405 3.54331,143.50405 3.54331,137.1261 0,137.1261 0,129.33082 3.54331,129.33082 3.54331,122.95286 0,122.95286 0,115.15757 3.54331,115.15757 3.54331,108.77962 0,108.77962 0,100.98434 3.54331,100.98434 3.54331,94.606377 0,94.606377 0,86.811095 3.54331,86.811095 3.54331,80.433137 0,80.433137 0,72.637855 3.54331,72.637855 3.54331,66.259897 0,66.259897 0,58.464615 3.54331,58.464615 3.54331,52.086657 0,52.086657 0,44.291375 3.54331,44.291375 3.54331,37.913417 0,37.913417 0,30.118135 3.54331,30.118135 3.54331,23.740177 0,23.740177 0,11.515757 3.54331,11.515757 3.54331,3.54331 8.858275,3.54331 8.858275,0 18.425212,0 18.425212,3.54331 24.80317,3.54331 24.80317,0 32.598452,0 32.598452,3.54331 38.97641,3.54331 38.97641,0 46.771692,0 46.771692,3.54331 53.14965,3.54331 53.14965,0 60.944932,0 60.944932,3.54331 67.32289,3.54331 67.32289,0 75.118172,0 75.118172,3.54331 81.49613,3.54331 81.49613,0 89.291412,0 89.291412,3.54331 "
       id="polygon15628" />
    <path
       id="polygon15632"
       d="m 316.86133,-332.61133 0,3.54297 -7.97266,0 0,5.31445 -3.54297,0 0,9.56641 3.54297,0 0,6.37891 -3.54297,0 0,7.79492 3.54297,0 0,6.3789 -3.54297,0 0,7.79493 3.54297,0 0,6.37695 -3.54297,0 0,7.79687 3.54297,0 0,6.37696 -3.54297,0 0,7.79492 3.54297,0 0,6.37891 -3.54297,0 0,7.79492 3.54297,0 0,6.37695 -3.54297,0 0,9.56836 3.54297,0 0,5.31445 7.97266,0 0,3.54297 12.22461,0 0,-3.54297 6.37695,0 0,3.54297 7.79492,0 0,-3.54297 6.37891,0 0,3.54297 7.79492,0 0,-3.54297 6.37695,0 0,3.54297 7.79688,0 0,-3.54297 6.37695,0 0,3.54297 7.79492,0 0,-3.54297 5.74805,0 0,3.53907 0.63086,0 0,0.004 7.79492,0 0,-0.004 6.37891,0 0,0.004 7.79492,0 0,-0.004 5.51562,0 0,-3.53907 0.86133,0 0,3.54297 7.79493,0 0,-3.54297 6.3789,0 0,3.54297 7.79492,0 0,-3.54297 6.37891,0 0,3.54297 7.79492,0 0,-3.54297 6.37695,0 0,3.54297 7.79493,0 0,-3.54297 6.3789,0 0,3.54297 12.22461,0 0,-3.54297 7.97266,0 0,-5.31445 3.54297,0 0,-9.56836 -3.54297,0 0,-6.37695 3.54297,0 0,-7.79492 -3.54297,0 0,-6.37891 3.54297,0 0,-7.79492 -3.54297,0 0,-6.37696 3.54297,0 0,-7.79687 -3.54297,0 0,-6.37695 3.54297,0 0,-7.79493 -3.54297,0 0,-6.3789 3.54297,0 0,-7.79492 -3.54297,0 0,-6.37891 3.54297,0 0,-9.56641 -3.54297,0 0,-5.31445 -7.97266,0 0,-3.54297 -12.22461,0 0,3.54297 -6.3789,0 0,-3.54297 -7.79493,0 0,3.54297 -6.37695,0 0,-3.54297 -7.79492,0 0,3.54297 -6.37891,0 0,-3.54297 -7.79492,0 0,3.54297 -6.3789,0 0,-3.54297 -7.79493,0 0,3.54297 -6.37695,0 0,-3.54297 -7.79492,0 0,3.54297 -6.37891,0 0,-3.54297 -7.79492,0 0,3.54297 -6.37891,0 0,-3.54297 -7.79492,0 0,3.54297 -6.37695,0 0,-3.54297 -7.79688,0 0,3.54297 -6.37695,0 0,-3.54297 -7.79492,0 0,3.54297 -6.37891,0 0,-3.54297 -7.79492,0 0,3.54297 -6.37695,0 0,-3.54297 -12.22461,0 z m 25.10937,30.72266 a 4.4194092,4.4194102 0 0 1 4.41992,4.41992 4.4194092,4.4194102 0 0 1 -4.41992,4.41992 4.4194092,4.4194102 0 0 1 -4.41797,-4.41992 4.4194092,4.4194102 0 0 1 4.41797,-4.41992 z m -21.5,3.09375 a 7.0931459,7.0931473 0 0 1 7.09375,7.09375 7.0931459,7.0931473 0 0 1 -7.09375,7.09179 7.0931459,7.0931473 0 0 1 -7.09179,-7.09179 7.0931459,7.0931473 0 0 1 7.09179,-7.09375 z m 21.5,22.05273 a 4.4194012,4.4194028 0 0 1 4.41992,4.41992 4.4194012,4.4194028 0 0 1 -4.41992,4.41993 4.4194012,4.4194028 0 0 1 -4.41797,-4.41993 4.4194012,4.4194028 0 0 1 4.41797,-4.41992 z m 0,24.83789 a 4.4194132,4.4194139 0 0 1 4.41992,4.41797 4.4194132,4.4194139 0 0 1 -4.41992,4.41992 4.4194132,4.4194139 0 0 1 -4.41797,-4.41992 4.4194132,4.4194139 0 0 1 4.41797,-4.41797 z"
       style="fill:none;stroke:#0000ff;stroke-width:0.0354331"
       inkscape:connector-curvature="0" />
  </g>
  <g
     id="g16700"
     transform="translate(65.404382,326.26205)">
    <path
       id="polygon15811"
       d="m 72.265625,-27.185547 0,3.542969 -5.314453,0 0,7.972656 -3.544922,0 0,12.5781251 3.544922,0 0,6.0253907 -3.544922,0 0,8.1484372 3.544922,0 0,6.023438 -3.544922,0 0,8.15039 3.544922,0 0,6.023438 -3.544922,0 0,8.150391 3.544922,0 0,6.023437 -3.544922,0 0,8.148437 3.544922,0 0,6.023438 -3.544922,0 0,8.150391 3.544922,0 0,6.023437 -3.544922,0 0,8.150391 3.544922,0 0,6.023437 -3.544922,0 0,8.148438 3.544922,0 0,6.023436 -3.544922,0 0,8.15039 3.544922,0 0,6.02344 -3.544922,0 0,8.15039 3.544922,0 0,6.02344 -3.544922,0 0,8.14843 3.544922,0 0,6.02344 -3.544922,0 0,12.58008 3.544922,0 0,7.97266 5.314453,0 0,3.54297 9.919922,0 0,-3.54297 6.025391,0 0,3.54297 8.148437,0 0,-3.54297 6.023435,0 0,3.54297 8.15039,0 0,-3.54297 6.02344,0 0,3.54297 8.15039,0 0,-3.54297 6.02344,0 0,3.54297 8.14844,0 0,-3.54297 6.02343,0 0,3.54297 8.15039,0 0,-3.54297 6.02344,0 0,3.54297 9.92188,0 0,-3.54297 5.31445,0 0,-7.97266 3.54297,0 0,-12.58008 -3.54297,0 0,-6.02344 3.54297,0 0,-8.14843 -3.54297,0 0,-6.02344 3.54297,0 0,-8.15039 -3.54297,0 0,-6.02344 3.54297,0 0,-8.15039 -3.54297,0 0,-6.023436 3.54297,0 0,-8.148438 -3.54297,0 0,-5.640625 3.5957,0 0,-28.117187 -3.5957,0 0,-0.613282 3.54297,0 0,-8.148437 -3.54297,0 0,-6.023437 3.54297,0 0,-8.150391 -3.54297,0 0,-6.023438 3.54297,0 0,-8.15039 -3.54297,0 0,-6.023438 3.54297,0 0,-8.1484372 -3.54297,0 0,-6.0253907 3.54297,0 0,-12.5781251 -3.54297,0 0,-7.972656 -5.31445,0 0,-3.542969 -9.92188,0 0,3.542969 -6.02344,0 0,-3.542969 -8.15039,0 0,3.542969 -6.02343,0 0,-3.542969 -8.14844,0 0,3.542969 -6.02344,0 0,-3.542969 -8.15039,0 0,3.542969 -6.02344,0 0,-3.542969 -8.15039,0 0,3.542969 -6.023435,0 0,-3.542969 -8.148437,0 0,3.542969 -6.025391,0 0,-3.542969 -9.919922,0 z M 98.873047,127.45508 a 4.4194064,4.4194052 0 0 1 4.419923,4.41992 4.4194064,4.4194052 0 0 1 -4.419923,4.41797 4.4194064,4.4194052 0 0 1 -4.419922,-4.41797 4.4194064,4.4194052 0 0 1 4.419922,-4.41992 z m 25.146483,0 a 4.4194101,4.4194092 0 0 1 4.41992,4.41992 4.4194101,4.4194092 0 0 1 -4.41992,4.41797 4.4194101,4.4194092 0 0 1 -4.41992,-4.41797 4.4194101,4.4194092 0 0 1 4.41992,-4.41992 z m 24.83594,0 a 4.4194138,4.4194132 0 0 1 4.41992,4.41992 4.4194138,4.4194132 0 0 1 -4.41992,4.41797 4.4194138,4.4194132 0 0 1 -4.41797,-4.41797 4.4194138,4.4194132 0 0 1 4.41797,-4.41992 z m -44.21485,18.82617 a 7.0931411,7.0931396 0 0 1 7.0918,7.09375 7.0931411,7.0931396 0 0 1 -7.0918,7.0918 7.0931411,7.0931396 0 0 1 -7.093745,-7.0918 7.0931411,7.0931396 0 0 1 7.093745,-7.09375 z"
       style="fill:none;fill-opacity:1;stroke:#0000ff;stroke-width:0.0354331;stroke-opacity:1"
       inkscape:connector-curvature="0" />
    <g
       id="g15789"
       transform="translate(-51.041904,-76.08307)">
      <polygon
         id="polygon15791"
         points="46.06303,3.54331 46.06303,0 54.212643,0 54.212643,3.54331 60.23627,3.54331 60.23627,0 68.385883,0 68.385883,3.54331 74.40951,3.54331 74.40951,0 82.559123,0 82.559123,3.54331 88.58275,3.54331 88.58275,0 96.732363,0 96.732363,3.54331 104.52765,3.54331 104.52765,0 114.44891,0 114.44891,11.250009 110.9056,11.250009 110.9056,20.374032 114.44891,20.374032 114.44891,28.523645 110.9056,28.523645 110.9056,37.647669 114.44891,37.647669 114.44891,48.897678 104.52765,48.897678 104.52765,45.354368 96.732363,45.354368 96.732363,48.897678 88.58275,48.897678 88.58275,45.354368 82.559123,45.354368 82.559123,48.897678 74.40951,48.897678 74.40951,45.354368 68.385883,45.354368 68.385883,48.897678 60.23627,48.897678 60.23627,45.354368 54.212643,45.354368 54.212643,48.897678 46.06303,48.897678 46.06303,45.354368 40.039403,45.354368 40.039403,48.897678 31.88979,48.897678 31.88979,45.354368 25.866163,45.354368 25.866163,48.897678 17.71655,48.897678 17.71655,45.354368 9.921268,45.354368 9.921268,48.897678 0,48.897678 0,37.647669 3.54331,37.647669 3.54331,28.523645 0,28.523645 0,20.374032 3.54331,20.374032 3.54331,11.250009 0,11.250009 0,0 9.921268,0 9.921268,3.54331 17.71655,3.54331 17.71655,0 25.866163,0 25.866163,3.54331 31.88979,3.54331 31.88979,0 40.039403,0 40.039403,3.54331 "
         style="fill:none;stroke:#0000ff;stroke-width:0.0354331" />
    </g>
    <g
       id="g15793"
       transform="translate(63.407008,-76.08307)">
      <polygon
         id="polygon15795"
         points="46.06303,3.54331 46.06303,0 54.212643,0 54.212643,3.54331 60.23627,3.54331 60.23627,0 68.385883,0 68.385883,3.54331 74.40951,3.54331 74.40951,0 82.559123,0 82.559123,3.54331 88.58275,3.54331 88.58275,0 96.732363,0 96.732363,3.54331 104.52765,3.54331 104.52765,0 114.44891,0 114.44891,11.250009 110.9056,11.250009 110.9056,20.374032 114.44891,20.374032 114.44891,28.523645 110.9056,28.523645 110.9056,37.647669 114.44891,37.647669 114.44891,48.897678 104.52765,48.897678 104.52765,45.354368 96.732363,45.354368 96.732363,48.897678 88.58275,48.897678 88.58275,45.354368 82.559123,45.354368 82.559123,48.897678 74.40951,48.897678 74.40951,45.354368 68.385883,45.354368 68.385883,48.897678 60.23627,48.897678 60.23627,45.354368 54.212643,45.354368 54.212643,48.897678 46.06303,48.897678 46.06303,45.354368 40.039403,45.354368 40.039403,48.897678 31.88979,48.897678 31.88979,45.354368 25.866163,45.354368 25.866163,48.897678 17.71655,48.897678 17.71655,45.354368 9.921268,45.354368 9.921268,48.897678 0,48.897678 0,37.647669 3.54331,37.647669 3.54331,28.523645 0,28.523645 0,20.374032 3.54331,20.374032 3.54331,11.250009 0,11.250009 0,0 9.921268,0 9.921268,3.54331 17.71655,3.54331 17.71655,0 25.866163,0 25.866163,3.54331 31.88979,3.54331 31.88979,0 40.039403,0 40.039403,3.54331 "
         style="fill:none;stroke:#0000ff;stroke-width:0.0354331" />
    </g>
    <g
       id="g15797"
       transform="matrix(0,1.0000001,-0.99999994,0,275.73444,-27.21111)">
      <polygon
         id="polygon15799"
         points="65.551235,3.54331 65.551235,0 73.700848,0 73.700848,3.54331 79.724475,3.54331 79.724475,0 87.874088,0 87.874088,3.54331 93.897715,3.54331 93.897715,0 102.04733,0 102.04733,3.54331 108.07095,3.54331 108.07095,0 116.22057,0 116.22057,3.54331 122.2442,3.54331 122.2442,0 130.39381,0 130.39381,3.54331 136.41744,3.54331 136.41744,0 144.56705,0 144.56705,3.54331 150.59067,3.54331 150.59067,0 158.74029,0 158.74029,3.54331 164.76391,3.54331 164.76391,0 172.91353,0 172.91353,3.54331 183.36629,3.54331 183.36629,0 192.40173,0 192.40173,10.187016 195.94504,10.187016 195.94504,21.437025 192.40173,21.437025 192.40173,27.460652 195.94504,27.460652 195.94504,38.710662 192.40173,38.710662 192.40173,48.897678 183.36629,48.897678 183.36629,45.354368 172.91353,45.354368 172.91353,48.897678 164.76391,48.897678 164.76391,45.354368 158.74029,45.354368 158.74029,48.897678 150.59067,48.897678 150.59067,45.354368 144.56705,45.354368 144.56705,48.897678 136.41744,48.897678 136.41744,45.354368 130.39381,45.354368 130.39381,48.897678 122.2442,48.897678 122.2442,45.354368 116.22057,45.354368 116.22057,48.897678 108.07095,48.897678 108.07095,45.354368 102.04733,45.354368 102.04733,48.897678 93.897715,48.897678 93.897715,45.354368 87.874088,45.354368 87.874088,48.897678 79.724475,48.897678 79.724475,45.354368 73.700848,45.354368 73.700848,48.897678 65.551235,48.897678 65.551235,45.354368 59.527608,45.354368 59.527608,48.897678 51.377995,48.897678 51.377995,45.354368 45.354368,45.354368 45.354368,48.897678 37.204755,48.897678 37.204755,45.354368 31.181128,45.354368 31.181128,48.897678 23.031515,48.897678 23.031515,45.354368 12.57875,45.354368 12.57875,48.897678 3.54331,48.897678 3.54331,38.710662 0,38.710662 0,27.460652 3.54331,27.460652 3.54331,21.437025 0,21.437025 0,10.187016 3.54331,10.187016 3.54331,0 12.57875,0 12.57875,3.54331 23.031515,3.54331 23.031515,0 31.181128,0 31.181128,3.54331 37.204755,3.54331 37.204755,0 45.354368,0 45.354368,3.54331 51.377995,3.54331 51.377995,0 59.527608,0 59.527608,3.54331 "
         style="fill:none;stroke:#0000ff;stroke-width:0.0354331" />
    </g>
    <path
       id="polygon15803"
       d="m 188.07227,-27.214844 0,3.544922 -10.1875,0 0,9.035156 3.54296,0 0,10.4531254 -3.54296,0 0,8.1484375 3.54296,0 0,6.0234375 -3.54296,0 0,8.1503906 3.54296,0 0,6.023437 -3.54296,0 0,8.148438 3.54296,0 0,6.025391 -3.54296,0 0,8.148437 3.54296,0 0,6.023438 -3.54296,0 0,1.714843 16.76171,0 0,28.097657 -16.76171,0 0,6.683593 3.54296,0 0,6.023438 -3.54296,0 0,8.150393 3.54296,0 0,6.02343 -3.54296,0 0,8.1504 3.54296,0 0,6.02343 -3.54296,0 0,8.14844 3.54296,0 0,6.02344 -3.54296,0 0,8.15039 3.54296,0 0,10.45312 -3.54296,0 0,9.03516 10.1875,0 0,3.54297 11.25,0 0,-3.54297 6.02343,0 0,3.54297 11.25,0 0,-3.54297 10.18555,0 0,-9.03516 -3.54297,0 0,-10.45312 3.54297,0 0,-8.15039 -3.54297,0 0,-6.02344 3.54297,0 0,-8.14844 -3.54297,0 0,-6.02343 3.54297,0 0,-8.1504 -3.54297,0 0,-6.02343 3.54297,0 0,-8.150393 -3.54297,0 0,-6.023438 3.54297,0 0,-8.148437 -3.54297,0 0,-6.023438 3.54297,0 0,-8.15039 -3.54297,0 0,-6.023438 3.54297,0 0,-8.15039 -3.54297,0 0,-6.023438 3.54297,0 0,-8.148437 -3.54297,0 0,-6.025391 3.54297,0 0,-8.148438 -3.54297,0 0,-6.023437 3.54297,0 0,-8.1503906 -3.54297,0 0,-6.0234375 3.54297,0 0,-8.1484375 -3.54297,0 0,-10.4531254 3.54297,0 0,-9.035156 -10.18555,0 0,-3.544922 -11.25,0 0,3.544922 -6.02343,0 0,-3.544922 -11.25,0 z"
       style="fill:none;stroke:#0000ff;stroke-width:0.0354331"
       inkscape:connector-curvature="0" />
    <g
       id="g15805"
       transform="translate(-51.041904,-27.185392)">
      <polygon
         id="polygon15807"
         points="47.126023,0 47.126023,3.54331 53.14965,3.54331 53.14965,0 61.299263,0 61.299263,3.54331 67.32289,3.54331 67.32289,0 75.472503,0 75.472503,3.54331 81.49613,3.54331 81.49613,0 89.645743,0 89.645743,3.54331 95.66937,3.54331 95.66937,0 105.59064,0 105.59064,3.54331 110.9056,3.54331 110.9056,11.515757 114.44891,11.515757 114.44891,24.094508 110.9056,24.094508 110.9056,30.118135 114.44891,30.118135 114.44891,38.267748 110.9056,38.267748 110.9056,44.291375 114.44891,44.291375 114.44891,52.440988 110.9056,52.440988 110.9056,58.464615 114.44891,58.464615 114.44891,66.614228 110.9056,66.614228 110.9056,72.637855 114.44891,72.637855 114.44891,80.787468 110.9056,80.787468 110.9056,86.811095 114.44891,86.811095 114.44891,94.960708 110.9056,94.960708 110.9056,100.98434 114.44891,100.98434 114.44891,109.13395 110.9056,109.13395 110.9056,115.15757 114.44891,115.15757 114.44891,123.30719 110.9056,123.30719 110.9056,129.33082 114.44891,129.33082 114.44891,137.48043 110.9056,137.48043 110.9056,143.50405 114.44891,143.50405 114.44891,151.65367 110.9056,151.65367 110.9056,157.6773 114.44891,157.6773 114.44891,165.82691 110.9056,165.82691 110.9056,171.85053 114.44891,171.85053 114.44891,184.42929 110.9056,184.42929 110.9056,192.40173 105.59064,192.40173 105.59064,195.94504 95.66937,195.94504 95.66937,192.40173 89.645743,192.40173 89.645743,195.94504 81.49613,195.94504 81.49613,192.40173 75.472503,192.40173 75.472503,195.94504 67.32289,195.94504 67.32289,192.40173 61.299263,192.40173 61.299263,195.94504 53.14965,195.94504 53.14965,192.40173 47.126023,192.40173 47.126023,195.94504 38.97641,195.94504 38.97641,192.40173 32.952783,192.40173 32.952783,195.94504 24.80317,195.94504 24.80317,192.40173 18.779543,192.40173 18.779543,195.94504 8.858275,195.94504 8.858275,192.40173 3.54331,192.40173 3.54331,184.42929 0,184.42929 0,171.85053 3.54331,171.85053 3.54331,165.82691 0,165.82691 0,157.6773 3.54331,157.6773 3.54331,151.65367 0,151.65367 0,143.50405 3.54331,143.50405 3.54331,137.48043 0,137.48043 0,129.33082 3.54331,129.33082 3.54331,123.30719 0,123.30719 0,115.15757 3.54331,115.15757 3.54331,109.13395 0,109.13395 0,100.98434 3.54331,100.98434 3.54331,94.960708 0,94.960708 0,86.811095 3.54331,86.811095 3.54331,80.787468 0,80.787468 0,72.637855 3.54331,72.637855 3.54331,66.614228 0,66.614228 0,58.464615 3.54331,58.464615 3.54331,52.440988 0,52.440988 0,44.291375 3.54331,44.291375 3.54331,38.267748 0,38.267748 0,30.118135 3.54331,30.118135 3.54331,24.094508 0,24.094508 0,11.515757 3.54331,11.515757 3.54331,3.54331 8.858275,3.54331 8.858275,0 18.779543,0 18.779543,3.54331 24.80317,3.54331 24.80317,0 32.952783,0 32.952783,3.54331 38.97641,3.54331 38.97641,0 "
         style="fill:none;stroke:#0000ff;stroke-width:0.0354331" />
    </g>
  </g>
</svg>
